<?xml version="1.0" encoding="UTF-8"?>
<svg width="32px" height="23px" viewBox="0 0 32 23" version="1.1" xmlns="http://www.w3.org/2000/svg" xmlns:xlink="http://www.w3.org/1999/xlink">
    <!-- Generator: Sketch 54.1 (76490) - https://sketchapp.com -->
    <title>LEGO_ShopEmails_RGB</title>
    <desc>Created with Sketch.</desc>
    <g id="Post-Test-Navigation" stroke="none" stroke-width="1" fill="none" fill-rule="evenodd">
        <g id="Menu---Footer---Desktop" transform="translate(-445.000000, -115.000000)" stroke="#0C6CB7" stroke-width="1.5">
            <g id="Footer">
                <g id="shop-guarantee">
                    <g id="Group-57" transform="translate(140.000000, 30.000000)">
                        <g id="LEGO_ShopEmails_RGB" transform="translate(308.000000, 87.000000)">
                            <path d="M13,-0.838048244 L26.75,6.01736486 L26.75,18.5802469 C26.75,19.2601182 26.4062485,19.7571378 25.8773463,20.0120456 C25.5892266,20.1509066 25.3182199,20.1944444 25.1034483,20.1944444 L0.896551724,20.1944444 C0.681780119,20.1944444 0.410773378,20.1509066 0.122653737,20.0120456 C-0.406248541,19.7571378 -0.75,19.2601182 -0.75,18.5802469 L-0.75,6.01736486 L13,-0.838048244 Z" id="Back_Flap_2_" fill="#FFFFFF"></path>
                            <g id="Envelope_2_" transform="translate(0.000000, 6.481481)">
                                <g id="Group">
                                    <path d="M13,5.64343324 L26.75,-1.21197987 L26.75,12.0987654 C26.75,12.7786367 26.4062485,13.2756563 25.8773463,13.5305641 C25.5892266,13.6694252 25.3182199,13.712963 25.1034483,13.712963 L0.896551724,13.712963 C0.681780119,13.712963 0.410773378,13.6694252 0.122653737,13.5305641 C-0.406248541,13.2756563 -0.75,12.7786367 -0.75,12.0987654 L-0.75,-1.21197987 L13,5.64343324 Z" id="Path"></path>
                                </g>
                            </g>
                            <path d="M13,12.1247569 L27.046931,19.1348351 L26.0993708,19.8655273 C25.9997821,19.9423232 25.8921096,20.0038265 25.7784421,20.0525223 C25.5252909,20.1609737 25.290905,20.1944444 25.1034483,20.1944444 L0.896551724,20.1944444 C0.709095036,20.1944444 0.474709089,20.1609737 0.221557912,20.0525223 C0.107890394,20.0038265 0.000217928364,19.9423232 -0.0993707615,19.8655273 L-1.04693097,19.1348351 L13,12.1247569 Z" id="Path" fill="#FFFFFF"></path>
                        </g>
                    </g>
                </g>
            </g>
        </g>
    </g>
</svg>