<svg width="72" height="72" xmlns="http://www.w3.org/2000/svg"><g fill="none" fill-rule="evenodd"><path d="M36 1C16.671 1 1 16.671 1 36s15.671 35 35 35 35-15.671 35-35S55.329 1 36 1z" stroke-opacity=".404" stroke="#FFF" fill="#000" fill-rule="nonzero" opacity=".6"/><path d="M28.708 50.93c-.239 0-.475-.058-.69-.178a1.445 1.445 0 0 1-.768-1.28V22.528c0-.537.295-1.033.767-1.278a1.447 1.447 0 0 1 1.493.065l20.417 13.472a1.455 1.455 0 0 1 0 2.433L29.51 50.69a1.45 1.45 0 0 1-.802.24z" fill="#E0E0E0"/></g></svg>